# xmcd
#
# Track frame offsets: 
#        150
#        20143
#        40260
#        57768
#        83895
#        101695
#        118539
#        136514
#        166163
#        193958
#        210194
#        229873
#        259985
#
# Disc length: 3871 seconds
#
# Revision: 0
# Processed by: cddbd v1.5.2PL0 Copyright (c) Steve Scherf et al.
# Submitted via: ExactAudioCopyFreeDBPlugin 1.0
#
DISCID=ab0f1d0d
DTITLE=Flag and Friends For OTAF - Hands
DYEAR=2012
DGENRE=Blues
TTITLE0=My Babe's Goot To Me [Featuring Vic Vergeat]
TTITLE1=Stomp [Featuring George Merk and Sebastiano Paù-Lessi]
TTITLE2=Love Soul Meter [Featuring Leo Leoni, Vic Vergeat, Paolo Meneg
TTITLE2=uzzi, Mary Birch, Danny Lee and Scuole Medie Di Cadenazzo]
TTITLE3=I Don't Need No Doctor [Featuring The Swing Factory]
TTITLE4=Il Muro [Featuring Vad Vuc]
TTITLE5=Esto Se Està Poniendo Lindo [Featuring Claudio Taddei]
TTITLE6=Svizzera and Italia... Hand In Hand [Featuring I Frontaliers Di 
TTITLE6=Rete Tre TSI]
TTITLE7=Voodoo Child [Featuring Eugenio Finardi, Joe Colombo and Frank S
TTITLE7=alis]
TTITLE8=UlMurinDalRantig [Featuring Marco Zappa and Sandro Schneebeli]
TTITLE9=MIA Pt. 2 [Featuring MAXI B and Maqs Rossi]
TTITLE10=Crosstown Traffic [Featuring Marcel Aeby]
TTITLE11=I'd Rather Go Blind [Featuring Judith Emeline and Frank Salis]
TTITLE12=Blues Is All We Need [Featuring Ticino Blues Connection]
EXTD=
EXTT0=
EXTT1=
EXTT2=
EXTT3=
EXTT4=
EXTT5=
EXTT6=
EXTT7=
EXTT8=
EXTT9=
EXTT10=
EXTT11=
EXTT12=
PLAYORDER=
